<?xml version="1.0" encoding="utf-8"?>

<!DOCTYPE svg PUBLIC "-//W3C//DTD SVG 1.1//EN" "http://www.w3.org/Graphics/SVG/1.1/DTD/svg11.dtd">
<!-- Uploaded to: SVG Repo, www.svgrepo.com, Generator: SVG Repo Mixer Tools -->
<svg height="800px" width="800px" version="1.1" id="_x32_" xmlns="http://www.w3.org/2000/svg" xmlns:xlink="http://www.w3.org/1999/xlink" 
	 viewBox="0 0 512 512"  xml:space="preserve">
<style type="text/css">
	.st0{fill:#000000;}
</style>
<g>
	<path class="st0" d="M404.824,53.177H107.177L0,228.28v147.902h49.682c-7.966,8.758-12.854,20.478-12.854,33.234
		c0,13.6,5.551,26.029,14.469,34.938c8.909,8.925,21.338,14.477,34.938,14.469c13.601,0.008,26.028-5.544,34.931-14.469
		c8.925-8.909,14.477-21.338,14.477-34.938c0-12.756-4.889-24.476-12.855-33.234h266.425c-7.965,8.758-12.854,20.478-12.846,33.234
		c-0.008,13.6,5.551,26.029,14.468,34.938c8.902,8.925,21.331,14.477,34.931,14.469c13.609,0.008,26.029-5.544,34.939-14.469
		c8.918-8.909,14.469-21.338,14.469-34.938c0-12.756-4.89-24.476-12.855-33.234H512v-11.674V228.28L404.824,53.177z M120.259,76.533
		h271.482l93.24,152.342H27.019L120.259,76.533z M110.238,419.559c-1.964,4.653-5.285,8.651-9.443,11.468
		c-4.173,2.81-9.123,4.432-14.56,4.44c-3.625-0.008-7.022-0.724-10.136-2.041c-4.66-1.965-8.658-5.292-11.468-9.45
		c-2.81-4.173-4.44-9.124-4.44-14.56c0-3.626,0.724-7.022,2.041-10.136c1.965-4.653,5.285-8.659,9.442-11.468
		c4.174-2.81,9.124-4.44,14.561-4.44c3.625,0,7.021,0.731,10.136,2.04c4.661,1.965,8.659,5.293,11.468,9.451
		c2.81,4.173,4.44,9.115,4.447,14.553C112.279,413.048,111.548,416.444,110.238,419.559z M449.769,419.559
		c-1.965,4.653-5.286,8.651-9.443,11.468c-4.173,2.81-9.123,4.432-14.56,4.44c-3.624-0.008-7.021-0.724-10.128-2.041
		c-4.66-1.965-8.666-5.292-11.476-9.45c-2.81-4.173-4.439-9.124-4.439-14.56c0-3.626,0.724-7.022,2.04-10.136
		c1.965-4.653,5.285-8.659,9.45-11.468c4.166-2.81,9.116-4.44,14.553-4.44c3.625,0,7.021,0.731,10.136,2.04
		c4.669,1.965,8.659,5.293,11.476,9.451c2.81,4.173,4.432,9.115,4.44,14.553C451.818,413.048,451.086,416.444,449.769,419.559z
		 M488.644,352.835H23.356V241.447h465.289V352.835z"/>
	<path class="st0" d="M378.445,90.362h-244.89L79.457,209.837h11.141h341.945L378.445,90.362z M220.278,104.732h71.446l2.818,16.487
		h-77.082L220.278,104.732z M215.008,135.588h81.986l3.457,20.272h-88.9L215.008,135.588z M190.205,195.459h-88.466l11.422-25.23
		h81.354L190.205,195.459z M196.967,155.86h-77.294l9.177-20.272h71.583L196.967,155.86z M135.36,121.219l7.464-16.487h62.878
		l-2.817,16.487H135.36z M204.788,195.459l4.311-25.23h93.812l4.302,25.23H204.788z M306.306,104.732h62.879l7.462,16.487h-67.531
		L306.306,104.732z M311.568,135.588h71.583l9.184,20.272h-77.302L311.568,135.588z M317.493,170.23h81.345l11.423,25.23h-88.466
		L317.493,170.23z"/>
</g>
</svg>